<svg width="30" height="30" viewBox="0 0 30 30" fill="none" xmlns="http://www.w3.org/2000/svg">
<circle cx="15" cy="15" r="15" fill="#E4E6EB"/>
<path d="M8 12L9.5 7.5H20.5L22 12M20.5 17C20.1022 17 19.7206 16.842 19.4393 16.5607C19.158 16.2794 19 15.8978 19 15.5C19 15.1022 19.158 14.7206 19.4393 14.4393C19.7206 14.158 20.1022 14 20.5 14C20.8978 14 21.2794 14.158 21.5607 14.4393C21.842 14.7206 22 15.1022 22 15.5C22 15.8978 21.842 16.2794 21.5607 16.5607C21.2794 16.842 20.8978 17 20.5 17ZM9.5 17C9.10218 17 8.72064 16.842 8.43934 16.5607C8.15804 16.2794 8 15.8978 8 15.5C8 15.1022 8.15804 14.7206 8.43934 14.4393C8.72064 14.158 9.10218 14 9.5 14C9.89782 14 10.2794 14.158 10.5607 14.4393C10.842 14.7206 11 15.1022 11 15.5C11 15.8978 10.842 16.2794 10.5607 16.5607C10.2794 16.842 9.89782 17 9.5 17ZM21.92 7C21.72 6.42 21.16 6 20.5 6H9.5C8.84 6 8.28 6.42 8.08 7L6 13V21C6 21.2652 6.10536 21.5196 6.29289 21.7071C6.48043 21.8946 6.73478 22 7 22H8C8.26522 22 8.51957 21.8946 8.70711 21.7071C8.89464 21.5196 9 21.2652 9 21V20H21V21C21 21.2652 21.1054 21.5196 21.2929 21.7071C21.4804 21.8946 21.7348 22 22 22H23C23.2652 22 23.5196 21.8946 23.7071 21.7071C23.8946 21.5196 24 21.2652 24 21V13L21.92 7Z" fill="black"/>
</svg>
