<svg width="30" height="30" viewBox="0 0 30 30" fill="none" xmlns="http://www.w3.org/2000/svg">
<circle cx="15" cy="15" r="15" fill="#E4E6EB"/>
<path d="M22.2 9.75H19V6.75C19 6.55109 18.9157 6.36032 18.7657 6.21967C18.6157 6.07902 18.4122 6 18.2 6C17.9878 6 17.7843 6.07902 17.6343 6.21967C17.4843 6.36032 17.4 6.55109 17.4 6.75V9.75H12.6V6.75C12.6 6.55109 12.5157 6.36032 12.3657 6.21967C12.2157 6.07902 12.0122 6 11.8 6C11.5878 6 11.3843 6.07902 11.2343 6.21967C11.0843 6.36032 11 6.55109 11 6.75V9.75H7.8C7.58783 9.75 7.38434 9.82902 7.23431 9.96967C7.08429 10.1103 7 10.3011 7 10.5C7 10.6989 7.08429 10.8897 7.23431 11.0303C7.38434 11.171 7.58783 11.25 7.8 11.25H8.6V14.25C8.6 17.0452 10.6416 19.3868 13.4 20.0535V22.5C13.4 22.8978 13.5686 23.2794 13.8686 23.5607C14.1687 23.842 14.5757 24 15 24C15.4243 24 15.8313 23.842 16.1314 23.5607C16.4314 23.2794 16.6 22.8978 16.6 22.5V20.0535C19.3584 19.3868 21.4 17.0452 21.4 14.25V11.25H22.2C22.4122 11.25 22.6157 11.171 22.7657 11.0303C22.9157 10.8897 23 10.6989 23 10.5C23 10.3011 22.9157 10.1103 22.7657 9.96967C22.6157 9.82902 22.4122 9.75 22.2 9.75Z" fill="black"/>
</svg>
