<svg width="30" height="30" viewBox="0 0 30 30" fill="none" xmlns="http://www.w3.org/2000/svg">
<circle cx="15" cy="15" r="15" fill="#E4E6EB"/>
<path d="M19.923 17.0199C19.8203 16.6265 19.6203 16.2599 19.323 15.9199C19.0256 15.5785 18.6473 15.3232 18.188 15.1539L11.196 12.5339C11.1053 12.5005 11.0153 12.4802 10.926 12.4729C10.8366 12.4655 10.7343 12.4615 10.619 12.4609H9.99997V10.1209C9.99997 9.86419 10.059 9.61686 10.177 9.37886C10.295 9.14019 10.4616 8.94852 10.677 8.80386L15.562 5.32486C15.7113 5.21886 15.864 5.14252 16.02 5.09586C16.176 5.04986 16.3353 5.02686 16.498 5.02686C16.6606 5.02686 16.824 5.05019 16.988 5.09686C17.152 5.14352 17.302 5.21952 17.438 5.32486L22.323 8.80386C22.5383 8.94852 22.705 9.14019 22.823 9.37886C22.941 9.61752 23 9.86452 23 10.1199V17.0179L19.923 17.0199ZM17.5 10.4409C17.608 10.4409 17.7023 10.4009 17.783 10.3209C17.863 10.2395 17.903 10.1449 17.903 10.0369C17.903 9.92886 17.863 9.83486 17.783 9.75486C17.7023 9.67352 17.608 9.63286 17.5 9.63286C17.392 9.63286 17.2976 9.67352 17.217 9.75486C17.137 9.83552 17.097 9.92952 17.097 10.0369C17.097 10.1442 17.137 10.2385 17.217 10.3199C17.2976 10.4005 17.392 10.4409 17.5 10.4409ZM15.5 10.4409C15.608 10.4409 15.7023 10.4009 15.783 10.3209C15.863 10.2395 15.903 10.1449 15.903 10.0369C15.903 9.92886 15.863 9.83486 15.783 9.75486C15.7023 9.67352 15.608 9.63286 15.5 9.63286C15.392 9.63286 15.2976 9.67352 15.217 9.75486C15.137 9.83552 15.097 9.92952 15.097 10.0369C15.097 10.1442 15.137 10.2385 15.217 10.3199C15.2976 10.4005 15.392 10.4409 15.5 10.4409ZM17.5 12.4409C17.608 12.4409 17.7023 12.4009 17.783 12.3209C17.863 12.2395 17.903 12.1449 17.903 12.0369C17.903 11.9289 17.863 11.8349 17.783 11.7549C17.7023 11.6735 17.608 11.6329 17.5 11.6329C17.392 11.6329 17.2976 11.6735 17.217 11.7549C17.137 11.8355 17.097 11.9295 17.097 12.0369C17.097 12.1442 17.137 12.2385 17.217 12.3199C17.2976 12.4005 17.392 12.4409 17.5 12.4409ZM15.5 12.4409C15.608 12.4409 15.7023 12.4009 15.783 12.3209C15.863 12.2395 15.903 12.1449 15.903 12.0369C15.903 11.9289 15.863 11.8349 15.783 11.7549C15.7023 11.6735 15.608 11.6329 15.5 11.6329C15.392 11.6329 15.2976 11.6735 15.217 11.7549C15.137 11.8355 15.097 11.9295 15.097 12.0369C15.097 12.1442 15.137 12.2385 15.217 12.3199C15.2976 12.4005 15.392 12.4409 15.5 12.4409ZM16.51 23.6709C16.642 23.7075 16.8023 23.7235 16.991 23.7189C17.1803 23.7149 17.3403 23.6949 17.471 23.6589L24 21.4999C24 21.0359 23.8416 20.6572 23.525 20.3639C23.2083 20.0699 22.8153 19.9229 22.346 19.9229H17.188C16.856 19.9229 16.516 19.9029 16.168 19.8629C15.8186 19.8222 15.493 19.7489 15.191 19.6429L13.619 19.1169C13.5116 19.0795 13.433 19.0092 13.383 18.9059C13.333 18.8025 13.3246 18.6975 13.358 18.5909C13.3913 18.4982 13.4586 18.4282 13.56 18.3809C13.6613 18.3329 13.7656 18.3275 13.873 18.3649L15.306 18.8669C15.578 18.9642 15.8756 19.0365 16.199 19.0839C16.523 19.1305 16.874 19.1539 17.252 19.1539H18.454C18.6426 19.1539 18.7936 19.0999 18.907 18.9919C19.0203 18.8839 19.077 18.7319 19.077 18.5359C19.077 18.2772 18.974 18.0075 18.768 17.7269C18.5626 17.4462 18.324 17.2579 18.052 17.1619L12.031 14.9519C11.9396 14.9239 11.8486 14.8992 11.758 14.8779C11.6666 14.8565 11.5693 14.8459 11.466 14.8459H9.38497V21.5829L16.51 23.6709ZM5.38397 21.9219C5.38397 22.2285 5.48664 22.4845 5.69197 22.6899C5.89797 22.8959 6.15431 22.9989 6.46097 22.9989H7.30697C7.61364 22.9989 7.86964 22.8959 8.07497 22.6899C8.28097 22.4845 8.38397 22.2285 8.38397 21.9219V15.9219C8.38397 15.6152 8.28097 15.3592 8.07497 15.1539C7.86897 14.9479 7.61297 14.8449 7.30697 14.8449H6.46097C6.15431 14.8449 5.89797 14.9479 5.69197 15.1539C5.48664 15.3599 5.38397 15.6159 5.38397 15.9219V21.9219Z" fill="black"/>
</svg>
