<svg width="30" height="30" viewBox="0 0 30 30" fill="none" xmlns="http://www.w3.org/2000/svg">
<circle cx="15" cy="15" r="15" fill="#E4E6EB"/>
<path fill-rule="evenodd" clip-rule="evenodd" d="M4.76142 13.1429C4.58071 13.143 4.4046 13.0859 4.25826 12.9799C4.11192 12.8738 4.00284 12.7242 3.94661 12.5525C3.89037 12.3808 3.88986 12.1956 3.94514 12.0236C4.00043 11.8515 4.10867 11.7013 4.25442 11.5945L14.5016 4.07992C14.6467 3.97349 14.8217 3.91547 15.0017 3.91409C15.1818 3.9127 15.3576 3.96803 15.5044 4.07221L21 7.97221V7.14292C21 6.91559 21.0903 6.69758 21.251 6.53683C21.4118 6.37609 21.6298 6.28578 21.8571 6.28578H22.7143C22.9416 6.28578 23.1596 6.37609 23.3204 6.53683C23.4811 6.69758 23.5714 6.91559 23.5714 7.14292V9.79749L26.0931 11.5868C26.2414 11.692 26.3524 11.8417 26.41 12.0142C26.4677 12.1866 26.4689 12.373 26.4137 12.5462C26.3584 12.7195 26.2495 12.8706 26.1027 12.9779C25.9558 13.0852 25.7787 13.143 25.5969 13.1429H23.5714V22.5715C23.5714 23.0262 23.3908 23.4622 23.0693 23.7837C22.7478 24.1052 22.3118 24.2858 21.8571 24.2858H8.14285C7.6882 24.2858 7.25216 24.1052 6.93067 23.7837C6.60918 23.4622 6.42857 23.0262 6.42857 22.5715V13.1429H4.76142ZM17.5714 14.8572V21.7144H21V14.8572H17.5714Z" fill="black"/>
</svg>
