<svg width="32" height="28" viewBox="0 0 32 28" fill="none" xmlns="http://www.w3.org/2000/svg">
<path d="M15.824 11.0766C17.0825 11.0784 18.289 11.5791 19.1789 12.4691C20.0689 13.359 20.5696 14.5655 20.5714 15.824V15.8286C20.5714 16.6094 20.3787 17.3781 20.0106 18.0666C19.6424 18.7552 19.1101 19.3423 18.4608 19.776C17.8115 20.2096 17.0653 20.4765 16.2883 20.5528C15.5112 20.6292 14.7273 20.5127 14.0061 20.2137C13.2848 19.9147 12.6484 19.4425 12.1532 18.8388C11.6581 18.235 11.3195 17.5185 11.1675 16.7527C11.0154 15.9868 11.0546 15.1953 11.2816 14.4482C11.5085 13.7011 11.9162 13.0216 12.4686 12.4697C12.8949 12.0287 13.4056 11.678 13.9703 11.4384C14.5349 11.1989 15.142 11.0754 15.7554 11.0754H15.8274H15.824V11.0766ZM27.4286 4.21943H27.4914C28.6366 4.21943 29.672 4.69257 30.4103 5.45486L30.4114 5.456C30.803 5.83476 31.1144 6.28851 31.3268 6.79019C31.5393 7.29186 31.6485 7.83119 31.648 8.376V8.44229V8.43886V23.2091C31.6477 24.3281 31.2031 25.4012 30.4118 26.1924C29.6206 26.9836 28.5475 27.4283 27.4286 27.4286H4.21943C3.10046 27.4283 2.02741 26.9836 1.23618 26.1924C0.444946 25.4012 0.000302956 24.3281 0 23.2091L0 8.37714C0 7.232 0.473143 6.19657 1.23543 5.45829L1.23657 5.45714C1.61533 5.06553 2.06908 4.75421 2.57076 4.54176C3.07243 4.32931 3.61176 4.22007 4.15657 4.22057H4.22286H4.21943H7.91086L8.75086 1.97829C8.99314 1.39886 9.38743 0.924572 9.88571 0.592L9.89714 0.585143C10.3888 0.215238 10.9848 0.0104105 11.6 0L20.0423 0C20.6615 0.0106797 21.2613 0.217559 21.7554 0.590857L21.7486 0.585143C22.2571 0.924572 22.6526 1.39886 22.8869 1.95771L22.8949 1.97829L23.7349 4.22057L27.4286 4.21943ZM15.824 23.2091L15.928 23.2103C16.8819 23.2117 17.8262 23.0205 18.7045 22.6482C19.5827 22.2759 20.3767 21.73 21.0389 21.0434L21.0411 21.0411C21.7282 20.3788 22.2744 19.5845 22.647 18.7058C23.0195 17.8272 23.2107 16.8824 23.2091 15.928L23.208 15.8183V15.824L23.2091 15.7189C23.2106 14.765 23.0194 13.8206 22.647 12.9424C22.2747 12.0642 21.7289 11.2702 21.0423 10.608L21.04 10.6057C19.7063 9.26629 17.8617 8.43771 15.8229 8.43771C13.784 8.43771 11.9394 9.26629 10.6057 10.6046C9.90535 11.2798 9.35152 12.0919 8.97872 12.9905C8.60593 13.889 8.42216 14.8547 8.43886 15.8274V15.8217L8.43771 15.9291C8.43771 17.9349 9.26743 19.7463 10.6023 21.0389L10.6046 21.0411C11.2669 21.7282 12.0612 22.2744 12.9399 22.647C13.8185 23.0195 14.7634 23.2107 15.7177 23.2091L15.8286 23.208H15.8229L15.824 23.2091Z" fill="#0866FF"/>
</svg>
