<?xml version="1.0" encoding="UTF-8"?>
<svg id="Layer_2" data-name="Layer 2" xmlns="http://www.w3.org/2000/svg" viewBox="0 0 25.5 18.7">
  <defs>
    <style>
      .cls-1 {
        fill: #0766ff;
      }
    </style>
  </defs>
  <g id="Layer_1-2" data-name="Layer 1">
    <g>
      <path class="cls-1" d="M10.24,1.5c4.82,0,8.74,2.59,8.74,5.77s-3.92,5.77-8.74,5.77c-1.05,0-2.09-.13-3.09-.38-.1-.03-.2-.04-.3-.04-.23,0-.46.07-.66.19l-1.99,1.25c.04-.22.07-.46.08-.72.04-1.03-.39-2.04-1.18-2.77-.73-.68-1.61-1.81-1.61-3.3C1.5,4.09,5.42,1.5,10.24,1.5M12.66,6.96c-.04-.32-.14-.63-.3-.91-.43-.76-1.25-1.22-2.12-1.22-.46,0-.92.13-1.34.37-.3.18-.56.43-.73.73-.19.33-.31.68-.35,1.03-.04-.32-.14-.63-.3-.91-.43-.76-1.25-1.22-2.12-1.22-.46,0-.92.13-1.34.37-.3.18-.56.43-.73.73-.48.82-.5,1.78-.05,2.55.43.76,1.25,1.22,2.12,1.22.46,0,.92-.13,1.34-.37.3-.18.56-.43.73-.73.19-.33.31-.68.35-1.03.04.32.14.63.3.91.43.76,1.25,1.22,2.12,1.22.46,0,.92-.13,1.34-.37.3-.18.56-.43.73-.73.19-.33.31-.68.35-1.03.04.32.14.63.3.91.43.76,1.25,1.22,2.12,1.22.46,0,.92-.13,1.34-.37.3-.18.56-.43.73-.73.48-.82.5-1.78.05-2.55-.43-.76-1.25-1.22-2.12-1.22-.46,0-.92.13-1.34.37-.3.18-.56.43-.73.73-.19.33-.31.68-.35,1.03M10.24.5C4.86.5.5,3.53.5,7.27c0,1.51.72,2.9,1.93,4.03.56.52.88,1.24.86,2-.03.87-.33,1.38-.71,2.35-.08.2.08.39.27.39.05,0,.1-.01.15-.04l3.73-2.35s.08-.04.12-.04c.02,0,.04,0,.06,0,1.04.26,2.16.42,3.34.42,5.38,0,9.74-3.03,9.74-6.77S15.62.5,10.24.5h0ZM15.08,8.71c-1.06,0-1.86-1.15-1.2-2.27.09-.15.22-.28.37-.37.28-.16.57-.24.83-.24,1.06,0,1.86,1.15,1.2,2.27-.09.15-.22.28-.37.37-.28.16-.57.24-.83.24h0ZM10.24,8.71c-1.06,0-1.86-1.15-1.2-2.27.09-.15.22-.28.37-.37.28-.16.57-.24.83-.24,1.06,0,1.86,1.15,1.2,2.27-.09.15-.22.28-.37.37-.28.16-.57.24-.83.24h0ZM5.4,8.71c-1.06,0-1.86-1.15-1.2-2.27.09-.15.22-.28.37-.37.28-.16.57-.24.83-.24,1.06,0,1.86,1.15,1.2,2.27-.09.15-.22.28-.37.37-.28.16-.57.24-.83.24h0Z"/>
      <path class="cls-1" d="M22.82,10.03c1.02.65,1.68,1.7,1.68,2.73,0,.89-.64,1.75-1.76,2.36l-.45.25-.06.51c-.03.23-.03.44,0,.66,0,.03,0,.07.01.1l-.99-.66-.32-.21-.38.06c-.39.06-.79.09-1.17.09-.69,0-1.34-.07-1.93-.22,1.96-.8,4.49-2.44,5.36-5.67M22.39,8.73c-.18,0-.35.13-.38.33-.67,3.87-4.06,5.72-6.83,6.31-.18.04-.22.28-.07.38,1.09.77,2.54,1.17,4.27,1.17.45,0,.89-.04,1.32-.1l2.75,1.83c.05.03.1.05.16.05.19,0,.35-.21.25-.41-.28-.53-.55-1.2-.63-1.86-.02-.16-.01-.3,0-.43,1.39-.76,2.28-1.93,2.28-3.24,0-1.56-1.11-3.24-2.96-4-.05-.02-.1-.03-.15-.03h0Z"/>
    </g>
  </g>
</svg>