<?xml version="1.0" encoding="UTF-8"?>
<svg id="Layer_2" data-name="Layer 2" xmlns="http://www.w3.org/2000/svg" viewBox="0 0 25 18.2">
  <defs>
    <style>
      .cls-1 {
        fill: #0766ff;
      }
    </style>
  </defs>
  <g id="Layer_1-2" data-name="Layer 1">
    <g>
      <path class="cls-1" d="M9.74,0C4.36,0,0,3.03,0,6.77c0,1.55.75,2.97,2.01,4.1.47.42.76,1.02.78,1.65.03,1.02-.28,1.53-.67,2.54-.11.28.21.55.47.38l3.73-2.35c1.07.28,2.22.44,3.43.44,5.38,0,9.74-3.03,9.74-6.77S15.12,0,9.74,0ZM4.07,5.56c1.41-.82,2.85.63,2.04,2.04-.09.15-.22.28-.37.37-1.41.82-2.85-.63-2.04-2.04.09-.15.22-.28.37-.37ZM10.58,7.97c-1.41.82-2.85-.63-2.04-2.04.09-.15.22-.28.37-.37,1.41-.82,2.85.63,2.04,2.04-.09.15-.22.28-.37.37ZM15.42,7.97c-1.41.82-2.85-.63-2.04-2.04.09-.15.22-.28.37-.37,1.41-.82,2.85.63,2.04,2.04-.09.15-.22.28-.37.37Z"/>
      <path class="cls-1" d="M25,12.26c0-1.56-1.11-3.24-2.96-4-.24-.1-.49.07-.54.33-.68,3.84-4.05,5.69-6.8,6.27-.18.04-.24.28-.09.38,1.09.77,2.54,1.17,4.27,1.17.45,0,.89-.04,1.32-.1l2.75,1.83c.24.16.53-.1.4-.36-.28-.53-.55-1.2-.63-1.86-.02-.16-.01-.3,0-.43,1.39-.76,2.28-1.93,2.28-3.24Z"/>
    </g>
  </g>
</svg>