<?xml version="1.0" encoding="UTF-8"?>
<svg id="Layer_2" data-name="Layer 2" xmlns="http://www.w3.org/2000/svg" viewBox="0 0 24 21.68">
  <defs>
    <style>
      .cls-1 {
        fill: #0766ff;
      }
    </style>
  </defs>
  <g id="Layer_1-2" data-name="Layer 1">
    <g>
      <g>
        <path class="cls-1" d="M15.04,1c4.39,0,7.96,3.57,7.96,7.96s-3.57,7.96-7.96,7.96-7.96-3.57-7.96-7.96S10.64,1,15.04,1M15.04,0C10.08,0,6.07,4.01,6.07,8.96s4.01,8.96,8.96,8.96,8.96-4.01,8.96-8.96S19.99,0,15.04,0h0Z"/>
        <path class="cls-1" d="M14.46,15.64v-1.23c0-.12-.1-.22-.22-.23-.82-.05-1.64-.3-2.2-.63-.09-.06-.13-.18-.09-.28l.25-.69c.05-.14.21-.19.34-.12.58.33,1.36.58,2.17.58,1.2,0,2.01-.69,2.01-1.65s-.65-1.5-1.9-2c-1.72-.67-2.79-1.46-2.79-2.93,0-1.34.91-2.37,2.36-2.68.11-.02.19-.11.19-.22v-1.27c0-.13.1-.23.23-.23h.59c.13,0,.23.1.23.23v1.19c0,.12.1.22.22.23.77.05,1.35.25,1.78.48.1.05.15.18.11.29l-.25.67c-.05.13-.2.19-.32.13-.39-.2-1.02-.46-1.9-.46-1.29,0-1.79.78-1.79,1.46,0,.86.62,1.31,2.09,1.92,1.73.71,2.61,1.57,2.61,3.07,0,1.29-.86,2.49-2.47,2.83-.11.02-.19.11-.19.23v1.32c0,.13-.1.23-.23.23h-.59c-.13,0-.23-.1-.23-.23Z"/>
      </g>
      <path class="cls-1" d="M3.74,6.71c-.15.74-.23,1.5-.23,2.26,0,5.26,3.55,9.77,8.49,11.11-.96.4-1.98.6-3.03.6-.42,0-.85-.03-1.27-.1-3.4-.53-6.11-3.27-6.61-6.67-.4-2.76.62-5.44,2.65-7.2M4.78,4.84c-.06,0-.13.02-.19.05C1.49,6.63-.47,10.14.1,14.05c.55,3.83,3.62,6.93,7.44,7.52.48.07.96.11,1.43.11,1.87,0,3.59-.57,5.03-1.55.3-.21.18-.68-.19-.72-5.23-.61-9.29-5.05-9.29-10.45,0-1.26.23-2.46.64-3.58.1-.28-.11-.54-.37-.54h0Z"/>
    </g>
  </g>
</svg>