<svg width="8" height="11" viewBox="0 0 8 11" fill="none" xmlns="http://www.w3.org/2000/svg">
<path fill-rule="evenodd" clip-rule="evenodd" d="M3.631 10.067C3.631 10.067 0 7.009 0 4C0 2.93913 0.421427 1.92172 1.17157 1.17157C1.92172 0.421427 2.93913 0 4 0C5.06087 0 6.07828 0.421427 6.82843 1.17157C7.57857 1.92172 8 2.93913 8 4C8 7.009 4.369 10.067 4.369 10.067C4.167 10.253 3.8345 10.251 3.631 10.067ZM4 5.75C4.22981 5.75 4.45738 5.70474 4.6697 5.61679C4.88202 5.52884 5.07493 5.39994 5.23744 5.23744C5.39994 5.07493 5.52884 4.88202 5.61679 4.6697C5.70474 4.45738 5.75 4.22981 5.75 4C5.75 3.77019 5.70474 3.54262 5.61679 3.3303C5.52884 3.11798 5.39994 2.92507 5.23744 2.76256C5.07493 2.60006 4.88202 2.47116 4.6697 2.38321C4.45738 2.29527 4.22981 2.25 4 2.25C3.53587 2.25 3.09075 2.43437 2.76256 2.76256C2.43437 3.09075 2.25 3.53587 2.25 4C2.25 4.46413 2.43437 4.90925 2.76256 5.23744C3.09075 5.56563 3.53587 5.75 4 5.75Z" fill="#0766FF"/>
</svg>
