<?xml version="1.0" encoding="UTF-8"?>
<svg id="Layer_2" data-name="Layer 2" xmlns="http://www.w3.org/2000/svg" viewBox="0 0 24 22.03">
  <defs>
    <style>
      .cls-1 {
        fill: #0766ff;
      }
    </style>
  </defs>
  <g id="Layer_1-2" data-name="Layer 1">
    <path class="cls-1" d="M17.41,1c1.42,0,2.78.53,3.82,1.51,1.09,1.02,1.72,2.4,1.77,3.89.05,1.49-.48,2.91-1.5,4l-7.61,8.14-1.89,2.02-1.88-2.01L2.51,10.42c-1.02-1.09-1.55-2.51-1.5-4,.05-1.49.68-2.88,1.77-3.89,1.04-.97,2.39-1.51,3.82-1.51,1.57,0,3.02.63,4.08,1.77.16.18.32.38.5.63l.82,1.18.82-1.19c.18-.26.34-.47.51-.65,1.07-1.14,2.52-1.77,4.08-1.77M17.41,0c-1.76,0-3.52.7-4.81,2.09-.23.24-.42.5-.6.76-.18-.26-.37-.51-.59-.74C10.1.72,8.35.02,6.59.02c-1.61,0-3.23.59-4.5,1.78-2.66,2.49-2.8,6.65-.31,9.31l7.61,8.14,2.61,2.79,2.62-2.8,7.61-8.14c2.49-2.66,2.34-6.83-.31-9.31-1.27-1.19-2.89-1.78-4.5-1.78h0Z"/>
  </g>
</svg>