<svg width="24" height="20" viewBox="0 0 24 20" fill="none" xmlns="http://www.w3.org/2000/svg">
<path fill-rule="evenodd" clip-rule="evenodd" d="M0 18.8889C0 18.5942 0.114935 18.3116 0.31952 18.1032C0.524105 17.8948 0.801582 17.7778 1.09091 17.7778H22.9091C23.1984 17.7778 23.4759 17.8948 23.6805 18.1032C23.8851 18.3116 24 18.5942 24 18.8889C24 19.1836 23.8851 19.4662 23.6805 19.6746C23.4759 19.8829 23.1984 20 22.9091 20H1.09091C0.801582 20 0.524105 19.8829 0.31952 19.6746C0.114935 19.4662 0 19.1836 0 18.8889ZM0 10C0 9.70532 0.114935 9.4227 0.31952 9.21433C0.524105 9.00595 0.801582 8.88889 1.09091 8.88889H22.9091C23.1984 8.88889 23.4759 9.00595 23.6805 9.21433C23.8851 9.4227 24 9.70532 24 10C24 10.2947 23.8851 10.5773 23.6805 10.7857C23.4759 10.994 23.1984 11.1111 22.9091 11.1111H1.09091C0.801582 11.1111 0.524105 10.994 0.31952 10.7857C0.114935 10.5773 0 10.2947 0 10ZM0 1.11111C0 0.816426 0.114935 0.533811 0.31952 0.325437C0.524105 0.117063 0.801582 0 1.09091 0H22.9091C23.1984 0 23.4759 0.117063 23.6805 0.325437C23.8851 0.533811 24 0.816426 24 1.11111C24 1.4058 23.8851 1.68841 23.6805 1.89679C23.4759 2.10516 23.1984 2.22222 22.9091 2.22222H1.09091C0.801582 2.22222 0.524105 2.10516 0.31952 1.89679C0.114935 1.68841 0 1.4058 0 1.11111Z" fill="#0866FF"/>
</svg>
