<?xml version="1.0" encoding="UTF-8"?>
<svg id="Layer_2" data-name="Layer 2" xmlns="http://www.w3.org/2000/svg" viewBox="0 0 24 23.38">
  <defs>
    <style>
      .cls-1 {
        fill: #0766ff;
      }
    </style>
  </defs>
  <g id="Layer_1-2" data-name="Layer 1">
    <g>
      <path class="cls-1" d="M12,1c2.18,0,3.95,1.77,3.95,3.95s-1.77,3.95-3.95,3.95-3.95-1.77-3.95-3.95,1.77-3.95,3.95-3.95M12,0c-2.73,0-4.95,2.21-4.95,4.95s2.21,4.95,4.95,4.95,4.95-2.21,4.95-4.95S14.73,0,12,0h0Z"/>
      <path class="cls-1" d="M19.88,15.73c.89,0,1.68.53,2.01,1.35l.94,2.3c.28.68.2,1.42-.21,2.04-.41.61-1.07.96-1.81.96H3.18c-.74,0-1.39-.35-1.81-.96-.41-.61-.49-1.35-.21-2.04l.94-2.3c.34-.82,1.13-1.35,2.01-1.35h15.77M19.88,14.73H4.12c-1.29,0-2.45.78-2.94,1.97l-.94,2.3c-.85,2.09.68,4.38,2.94,4.38h17.64c2.26,0,3.79-2.29,2.94-4.38l-.94-2.3c-.49-1.19-1.65-1.97-2.94-1.97h0Z"/>
    </g>
  </g>
</svg>